{
	"asset":{
		"version":"2.0",
		"generator":"Houdini GLTF 2.0 Exporter"
	},
	"accessors":[
		{
			"bufferView":0,
			"componentType":5125,
			"count":52152,
			"type":"SCALAR",
			"min":[0
			],
			"max":[52151
			]
		},
		{
			"bufferView":1,
			"componentType":5126,
			"count":52152,
			"type":"VEC3",
			"min":[-0.372631967,-0.372329295,-0.0340000018
			],
			"max":[0.372237056,0.370910645,0
			]
		},
		{
			"bufferView":2,
			"componentType":5126,
			"count":52152,
			"type":"VEC3",
			"min":[-1,-1,-1
			],
			"max":[1,1,1
			]
		}
	],
	"buffers":[
		{
			"uri":"testing_yulaLogo_data.bin",
			"byteLength":1460256,
			"name":"main_buffer"
		}
	],
	"bufferViews":[
		{
			"buffer":0,
			"byteLength":208608,
			"target":34963
		},
		{
			"buffer":0,
			"byteOffset":208608,
			"byteLength":625824,
			"target":34962
		},
		{
			"buffer":0,
			"byteOffset":834432,
			"byteLength":625824,
			"target":34962
		}
	],
	"nodes":[
		{
			"name":"geo1",
			"mesh":0
		}
	],
	"meshes":[
		{
			"primitives":[
				{
					"attributes":{
						"NORMAL":2,
						"POSITION":1
					},
					"indices":0,
					"material":0
				}
			]
		}
	],
	"materials":[
		{
			"name":"gltf_yula_shiny",
			"pbrMetallicRoughness":{
				"baseColorFactor":[0.333000004,0.333000004,0.333000004,1
				],
				"roughnessFactor":0.200000003
			}
		}
	],
	"scenes":[
		{
			"nodes":[0
			]
		}
	],
	"scene":0
}
